# xmcd
#
# Track frame offsets: 
#        150
#        22995
#        49215
#        69000
#        90902
#        115375
#        136102
#        160047
#        185625
#        210290
#
# Disc length: 3055 seconds
#
# Revision: 0
# Processed by: cddbd v1.5.2PL0 Copyright (c) Steve Scherf et al.
# Submitted via: ExactAudioCopy v1.0b3
#
DISCID=740bed0a
DTITLE=Tuan Vu, Huong Lan - Cuoc Tinh Xua
DYEAR=1991
DGENRE=
TTITLE0=Tuan Vu - LK Co hang xom, Hoa su nha nang
TTITLE1=Huong Lan - Chu nhat xam
TTITLE2=Tuan Vu, Ngoc Dan Thanh - Buc tam thu
TTITLE3=Huong Lan - Hanh phuc lang thang
TTITLE4=Tuan Vu - Han Do Ban
TTITLE5=Tuan Vu, Ngoc Dan Thanh - Tinh bo vo
TTITLE6=Huong Lan - Ru con tinh cu
TTITLE7=Tuan Vu - Tam hon co don
TTITLE8=Huong Lan - Hoi nguoi con nho den ta
TTITLE9=Tuan Vu, Ngoc Dan Thanh - Truong cu tinh xua
EXTD=
EXTT0=
EXTT1=
EXTT2=
EXTT3=
EXTT4=
EXTT5=
EXTT6=
EXTT7=
EXTT8=
EXTT9=
PLAYORDER=
